<svg xmlns="http://www.w3.org/2000/svg" xmlns:xlink="http://www.w3.org/1999/xlink" id="Layer_1" x="0px" y="0px" viewBox="0 0 850.6 694.4" style="enable-background:new 0 0 850.6 694.4;" xml:space="preserve"><style type="text/css">	.st0{fill:#929FA8;fill-opacity:0.502;}	.st1{opacity:0.4;}	.st2{fill:#929FA8;}	.st3{fill:#FFC4AD;}	.st4{fill:#2A3338;}	.st5{fill:#FF4800;fill-opacity:0.2118;}	.st6{fill-opacity:0.1176;}	.st7{fill:#FFFFFF;}	.st8{fill:#929FA8;fill-opacity:0.1333;}	.st9{fill:#535D66;fill-opacity:0.1255;}	.st10{fill:#535D66;fill-opacity:9.019608e-02;}	.st11{fill:#535D66;fill-opacity:0.1451;}	.st12{fill:#535D66;fill-opacity:0.102;}	.st13{fill:#535D66;fill-opacity:0.1137;}</style><g id="layer2">	<g>		<path class="st0" d="M850.6,675.8l-3.8,1.5c-18.4,2.9-72.2,5.3-161.5,7c-89.9,1.8-195.8,2.5-317.6,2.1   c-116.2-0.5-209.2-1.8-278.9-4.1c-22.4-0.7-40.7-1.5-55.2-2.4l-18.3-1.3c-10-0.9-15.1-1.9-15.2-2.8c3-3,44.6-5.6,124.6-7.6   s180.2-3.1,300.8-3.1c120.5,0.1,220.8,1.1,300.8,3.1C806,670.2,847.5,672.7,850.6,675.8"></path>	</g>	<g class="st1">		<path class="st2" d="M387.5,215.7h187.3h187.3c0,26.6,0,53.1,0,79.7c-124.8,0-249.7,0-374.5,0   C387.5,268.9,387.5,242.3,387.5,215.7"></path>	</g>	<g>		<path d="M215.3,251.5c-18.7,0-36.3,2.5-52.7,7.4c-16.4,4.6-30.9,11.5-43.6,20.6c-12.2,9.2-22,20.6-29.2,34.4   c-6.9,13.8-10.3,29.8-10.3,48.1l89.4,21.8c0-9.9,3.8-18.5,11.5-25.8c7.6-7.3,17.2-10.9,28.7-10.9c9.9,0,18.7,3.1,26.4,9.2   c7.3,5.7,10.9,13.6,10.9,23.5c0,6.9-2.9,13.8-8.6,20.6c-5.3,6.9-15.9,15.3-31.5,25.2c-7.6,4.6-14.7,9.9-21.2,16   c-6.1,5.7-11.7,12.8-16.6,21.2c-4.6,8-8.2,17.4-10.9,28.1s-4,23.1-4,37.3v17.2h79.1c0-4.2,0.2-8.2,0.6-12c0.8-7.3,2.3-13,4.6-17.2   c6.5-10.3,13.6-18.9,21.2-25.8s15.3-13.2,22.9-18.9c7.6-5.3,15.1-10.7,22.4-16c7.3-5,13.8-11.1,19.5-18.3   c5.3-7.3,9.7-16,13.2-26.4c3.4-9.9,5.2-22.7,5.2-38.4c0-18.3-3.2-35-9.7-49.9c-6.1-14.5-14.9-27.1-26.4-37.8   c-11.1-10.3-24.3-18.5-39.5-24.6c-15.3-5.7-32.1-8.6-50.4-8.6L215.3,251.5z M154,598.2v79.1h78.5v-79.1H154z"></path>	</g>	<g>		<path d="M189.6,13.1c-5.9-1.9-12-1.9-18.2,0c-5.7,1.8-10,5.1-12.9,9.8c-3.2,5.2-4.7,14.1-4.5,26.8l8.8,8.5l41.5-14.8   c2.4-6.6,2.3-12.4-0.3-17.3C200.5,19.5,195.8,15.2,189.6,13.1"></path>	</g>	<g>		<path d="M299.4,383.1l-5.4,17.6c-3.5,3.3-5.5,6.2-5.9,8.6c-0.7,3.8,0.6,8,4,12.6c2.6,3.3,5.5,5.5,8.7,6.4c1,0.3,2.3,0.6,3.8,0.7   c8.9,0.1,14.1,0.5,15.4,1c0.9,0,6.3,1.8,16,5.5c1.7,0.6,3.4,1,5.1,1.3c7,1.4,14-0.6,20.8-6.1c6.6-5.9,8.2-11.4,4.9-16.4   c-1-1.3-2.3-2.3-3.9-2.9c-0.9-0.4-1.7-0.6-2.5-0.8c-4.6-1-7.4-1.6-8.3-1.9c-2.1-0.7-3.7-1.5-4.9-2.5c-3.1-2.6-5.7-7.5-7.7-14.8   l-39.9-8.2"></path>	</g>	<g>		<path d="M339.2,386.6C338.8,387.1,338.8,387.2,339.2,386.6 M338.9,387.1l-8.8,12.8c-2.4-1.5-3.9-1.7-4.4-0.7   c-0.6,0.7-0.6,3,0.2,6.9l4.2-6.1h0.1c1.4,0.9,3.3,2.4,5.9,4.6c11.3,10.1,17.3,15.3,17.8,15.6c2.8,2.3,5,3.9,6.7,4.7   c2.7,1.5,5,1.3,6.8-0.4c5.1-5.4,8.3-8.9,9.5-10.6c1.9-2.4,3-4.3,3.4-5.9c0.8-2.6-0.8-4.9-4.8-6.9c-1.7-0.9-4.5-2-8.2-3.3   c-1.4-0.5-7.9-2.6-19.3-6.3c-2.1-0.7-3.7-1.3-4.8-1.7C340,388.7,338.6,387.8,338.9,387.1"></path>	</g>	<g>		<path class="st3" d="M246.1,163.4l-23.5,7.5c6.7,22.9,12.1,37.2,16.4,42.8c3.8,5.6,8.1,7.4,12.9,5.3c5.3-2.7,8.6-7.9,10-15.5   C263.5,193.7,258.2,180.3,246.1,163.4"></path>	</g>	<g>		<path class="st2" d="M146.4,88.5l-1.7,7l-32.3,18c-8.1,17.7-11.8,31.2-11.3,40.5c0,4.2,0.5,10.2,1.6,17.9l40.8-2.4   c-5,30.9-7.1,51.2-6.4,61c0.3,13.1,3.9,28,9.9,38.8l92.7-57l-9.2-41.9l19.3-4.8c-4.8-18.4-11-34.2-18.5-47.5l-34.6-16.9l-0.9-8.5   l-49.2-4.3"></path>	</g>	<g>		<path class="st4" d="M309.1,288.4l5.9,55.3l-24.7-55.2l18.4-0.1 M220.8,212.5c-21.9-0.1-39.7,5.4-53.3,16.3   c-16.9,13.2-23.6,26.7-20.3,40.6c21.9,4,36.4,7.3,43.4,9.9c5.8,0.9,19.4,6.3,40.9,16.1c2.8,1,6.9,1.7,12.3,2.1   c2.9,11,5.7,18.8,8.4,23.3c20,26.4,30.8,41.8,32.3,46.4c2.2,3.8,5.5,13.1,9.9,28l54.1-3.5c6.5-74.3,10-114,10.6-119.2   c0.7-5.9,0-11.6-2.1-17.1c-10.2-23.7-55.5-38-135.8-42.9H220.8z"></path>	</g>	<g>		<path class="st3" d="M145.6,164.2l-41.1,6.1c1.7,11.5,3.8,20.8,6.4,27.9c2.2,6.4,6.6,14.4,12.9,24.2l27.5,6.2   c4,0.9,6.3,1.3,6.7,1.1c3.6-0.5,6.7-0.8,9.3-0.9l32-1.3c6.3-0.3,11.2-0.7,14.6-1.2c7.8-1,11.6-2.6,11.6-4.9   c4.8,4.7,9.3,6.9,13.5,6.6c3.4-0.4,6.6-2.3,9.6-5.8c2.7-3.4,3.8-6.7,3.2-9.8c-1.8-5.3-8.2-8.5-19.1-9.6c-3.4-0.3-7,0-10.8,0.7   c-1.6,0.2-6.9,1.6-15.7,4.2c-1.9,0.5-3.5,0.8-4.8,0.9c-3.5,0.5-7.3,0.3-11.4-0.4c-6-0.8-20.1-5.8-42.5-14.9   C149.7,187.3,149,177.6,145.6,164.2"></path>	</g>	<g>		<path d="M369.4,156.9l-86.9,2.2l-39.7,67.2l-56.6-1.1v6l54,9.7l85.9-4.9l3.4-10.2L369.4,156.9"></path>	</g>	<g>		<path class="st3" d="M212.6,224.6c-0.6-0.7-4.1-1.5-10.5-2.3c-7.7-0.9-12.7-1.2-15.1-0.9c-1,0.1-1.8,0.4-2.3,0.8l-1.3,6   c2.4-0.1,6.3-0.3,11.7-0.8c4.4-0.4,8-0.7,10.6-1C210.7,225.8,213,225.2,212.6,224.6"></path>	</g>	<g>		<path d="M294.9,394.4c-2,3.1-3.4,5.5-4.2,7.3c-0.8,1.8-1.7,4.4-2.6,7.8l9.2-2.9l1.3-10.9L294.9,394.4"></path>	</g>	<g>		<path class="st3" d="M174.9,28.9c-4.2,0.1-6.9,1.2-7.9,3.4c-0.3,0.7-0.5,1.6-0.5,2.7c-0.1,0.4,0.1,2.3,0.4,5.6   c0,0.8,0,1.4-0.2,1.7c-0.1,0.5-0.4,0.9-0.8,1.2l-2.6,1.7c-0.4,0.4-0.6,0.9-0.7,1.6c-0.1,0.7-0.1,1.6-0.1,2.5l0.5,4.6l-2.9,0.5   c0.4-2.4-1.3-5-5.3-7.8c-1.7-1-2.8-0.7-3.3,0.8c-0.7,3.1-0.2,7.4,1.4,13c0.5,1.6,1.1,2.7,1.7,3.5c0.3,0.5,1.3,1.3,3,2.4   c0.3,0.2,0.5,0.5,0.7,0.8c0.5,0.9,0.8,2.2,0.9,3.8c0.4,6.4-1,12.7-4.2,19.1l20.1,7.3l11.6,18.5l4.7-16.3l1.1-11.8   c4.3-4.4,8-11.6,11-21.8c0.3-1.3,0.5-2.6,0.6-4l0.2-8.3l0.7-10c0.1-2.8,0.1-5-0.1-6.6c-0.3-3.1-1.6-4.9-3.8-5.5   c-0.6-0.2-1.5-0.3-2.5-0.3c-4.9,0.3-7.8,0.3-8.7,0.1c-0.7,0-4.3-0.7-10.7-2.1C177.5,29,176.2,28.8,174.9,28.9"></path>	</g>	<g>		<path class="st5" d="M164.8,80.3C165.5,81.1,165.5,81.1,164.8,80.3 M165.3,80.9L178,96.2l12.9-8c-4.8,2.5-9.2,3.2-13,2.1   C174.2,89.2,170,86.1,165.3,80.9"></path>	</g>	<g>		<path class="st4" d="M365.1,428.7c1.2-2.6,0.2-5.3-2.9-8.1c-3.3-2.8-7.7-4.8-13.1-5.9c-6.1-1.1-12.4-1.2-18.9-0.3   c-2.5,0.4-4.6,0.9-6.2,1.5c-1.2,0.5-2.6,1.4-4.2,2.8c-0.4,0.2-0.8,0.3-1.3,0.3c-0.7,0-1.7-0.2-3.1-0.5l-11.1-3.3   c-2-0.6-3.7-0.9-5-1.2c-4.1-0.7-7.8-0.8-11-0.2l0.6,3.1c1.3,2.3,2.4,4.1,3.3,5.3c1.9,2.5,4.1,4.3,6.6,5.6c0.8,0.4,1.6,0.6,2.4,0.7   c5.8,0.4,10.6,1,14.4,1.9c1.9,0.4,3.7,0.9,5.6,1.4l11,3.4c1.8,0.5,3.5,0.9,5.2,1.2c5.4,1.1,10.7,0.9,15.9-0.5   C359.5,434.3,363.4,431.9,365.1,428.7"></path>	</g>	<g id="shadows">		<path class="st6" d="M142.6,131l3.1,30.4c0.4-3,0.7-5.3,0.7-7.1c0.1-2,0-4.1-0.2-6.1C145.8,144,144.6,138.3,142.6,131L142.6,131z    M233.9,141.1l-1.4,27.5c1.1-2.9,1.9-5.1,2.3-6.8c0.5-1.9,0.8-3.8,0.9-5.7C235.8,152.4,235.2,147.4,233.9,141.1L233.9,141.1z    M201,197.8c-6.3,0-14.2,0.6-23.5,1.8l49.5,1.1l0,0c-5.9-1-10.5-1.7-13.9-2.1c-3.8-0.4-7.4-0.7-10.9-0.7   C201.9,197.8,201.5,197.8,201,197.8z M327.6,259.4l-16.5,23.4c4.8-3.9,8.2-7.2,10.2-10.1C323.5,269.5,325.6,265.1,327.6,259.4   L327.6,259.4z M246.2,274.7l-6.1,11.3c1.6-0.5,2.7-1,3.4-1.5c0.8-0.5,1.4-1.2,1.8-1.9C246.1,281.1,246.4,278.5,246.2,274.7   L246.2,274.7z M262.6,241.7c4.3,1.9,7.4,3.8,9.5,5.5c2.5,2.1,4.7,4.6,6.4,7.8c3.1,5.3,6.5,16.8,10,34.6L286,252L262.6,241.7   L262.6,241.7z M250.7,283.1l-6.9,10.4l5.5-2.9L250.7,283.1L250.7,283.1z M315.7,344l10.9,50.1c0.3-6.7,0.3-11.8,0.1-15.3   c-0.2-4-0.6-7.7-1.4-11.1C323.9,360.9,320.6,353,315.7,344L315.7,344z M331,393.6c10.9,6.4,19,11.4,24.2,15   c4.6,3.1,7.9,5.9,9.8,8.1l-7.2-10.5l0,0L331,393.6L331,393.6z M365,416.7l2.3,3.3C366.5,418.7,365.7,417.6,365,416.7L365,416.7z"></path>	</g>	<g>		<path class="st7" d="M389.5,208.1L389.5,208.1h375.8c2.4,0,4.3,1.9,4.3,4.3l0,0v82.1c0,2.4-1.9,4.3-4.3,4.3l0,0H389.5   c-1.1,0-2.2-0.5-3.1-1.3c-0.8-0.8-1.3-1.9-1.3-3.1l0,0v-82.1c0-1.1,0.5-2.2,1.3-3.1C387.2,208.6,388.3,208.1,389.5,208.1   L389.5,208.1 M389.5,216.8l4.3-4.3v82.1l-4.3-4.3h375.8l-4.3,4.3v-82.1l4.3,4.3H389.5z"></path>	</g>	<g>		<path class="st7" d="M728.2,250.6L728.2,250.6c0,13.8-11.2,25.1-25.1,25.1l0,0c-13.8,0-25.1-11.2-25.1-25.1l0,0   c0-13.8,11.2-25.1,25.1-25.1l0,0C716.9,225.6,728.2,236.8,728.2,250.6L728.2,250.6 M720,250.6L720,250.6c0-9.3-7.5-16.9-16.9-16.9   l0,0c-9.3,0-16.9,7.5-16.9,16.9l0,0c0,9.3,7.5,16.9,16.9,16.9l0,0C712.4,267.5,720,259.9,720,250.6z"></path>	</g>	<g>		<path class="st7" d="M721.7,256.7l21.3,14.1l21.3,14.1c-1.9,2.9-3.8,5.8-5.7,8.6c-14.2-9.4-28.4-18.8-42.6-28.2L721.7,256.7"></path>	</g>	<g>		<path class="st7" d="M394.9,310.1h182.4h182.4c0,105.8,0,211.6,0,317.3c-121.6,0-243.2,0-364.9,0   C394.9,521.7,394.9,415.9,394.9,310.1"></path>	</g>	<g>		<path class="st7" d="M535.8,238.1L535.8,238.1L535.8,238.1L535.8,238.1L535.8,238.1L535.8,238.1L535.8,238.1L535.8,238.1"></path>	</g>	<g>		<g>			<path class="st7" d="M447.3,335.9L447.3,335.9L447.3,335.9L447.3,335.9L447.3,335.9L447.3,335.9L447.3,335.9L447.3,335.9"></path>		</g>		<g>			<path class="st8" d="M426.2,330.3h151.1h151.1c0,92.3,0,184.6,0,276.9c-100.7,0-201.4,0-302.1,0    C426.2,515,426.2,422.7,426.2,330.3"></path>		</g>		<g>			<path class="st9" d="M447.3,369.2h154.9v18H447.3L447.3,369.2"></path>		</g>		<g>			<path class="st10" d="M447.3,420.4h214.6v18H447.3L447.3,420.4"></path>		</g>		<g>			<path class="st11" d="M447.3,471.7h202.9v18H447.3L447.3,471.7"></path>		</g>		<g>			<path class="st12" d="M447.3,522.9h177.6v18H447.3L447.3,522.9"></path>		</g>		<g>			<path class="st13" d="M447.3,574.2h154.9v18H447.3L447.3,574.2"></path>		</g>	</g>	<g>		<path class="st9" d="M419.6,246.7h77.5h77.5c0,6,0,12,0,18c-51.6,0-103.3,0-154.9,0C419.6,258.6,419.6,252.7,419.6,246.7"></path>	</g></g></svg>